<?xml version="1.0" encoding="UTF-8" standalone="no"?>
<!DOCTYPE svg PUBLIC "-//W3C//DTD SVG 1.1//EN" "http://www.w3.org/Graphics/SVG/1.1/DTD/svg11.dtd">
<svg width="100%" height="100%" viewBox="0 0 1080 1080" version="1.1" xmlns="http://www.w3.org/2000/svg" xmlns:xlink="http://www.w3.org/1999/xlink" xml:space="preserve" xmlns:serif="http://www.serif.com/" style="fill-rule:evenodd;clip-rule:evenodd;stroke-linejoin:round;stroke-miterlimit:2;">

    <rect width="100%" height="100%" fill="green"/>
    <g transform="scale(2)">
    <g transform="translate(0.000000,500.000000) scale(0.100000,-0.100000)"
   fill="#ffffff" stroke="none">
    <path d="M742 3188 l3 -1203 218 -3 217 -2 0 104 c0 125 11 138 60 70 94 -132
292 -213 486 -200 264 18 448 134 563 355 76 148 111 314 111 533 0 229 -30
380 -106 538 -39 79 -60 108 -128 175 -123 121 -237 170 -421 182 -188 12
-340 -42 -465 -164 -41 -40 -80 -73 -87 -73 -10 0 -13 90 -13 445 l0 445 -220
0 -220 0 2 -1202z m892 172 c213 -31 315 -198 315 -515 0 -316 -100 -481 -311
-513 -228 -35 -393 86 -443 325 -19 88 -19 288 0 376 39 186 149 304 303 326
31 5 59 9 62 10 3 0 36 -4 74 -9z"/>
    <path d="M3900 2475 c0 -390 -2 -445 -15 -445 -8 0 -43 29 -78 64 -104 106
-237 156 -418 156 -326 0 -557 -161 -667 -465 -99 -272 -87 -698 26 -948 115
-252 337 -397 608 -397 181 0 340 63 444 178 33 36 60 69 60 73 0 5 9 9 20 9
19 0 20 -7 20 -115 l0 -115 220 0 220 0 0 1225 0 1225 -220 0 -220 0 0 -445z
m-235 -635 c107 -49 174 -137 212 -280 24 -90 24 -338 0 -430 -25 -94 -64
-164 -119 -216 -76 -71 -124 -88 -248 -89 -121 0 -172 13 -232 58 -90 69 -137
162 -159 322 -13 89 -7 270 11 355 17 76 62 169 105 213 100 103 289 132 430
67z"/>
</g>
    </g>
</svg>
